<svg width="194" height="205" viewBox="0 0 194 205" fill="none" xmlns="http://www.w3.org/2000/svg">
<path d="M39.344 170.824C36.4427 170.824 33.4987 170.483 30.512 169.8C27.6107 169.203 24.7093 168.349 21.808 167.24C15.7493 164.595 10.928 161.224 7.344 157.128C2.48 151.24 0.0479994 147.144 0.0479994 144.84C0.0479994 143.133 1.456 142.28 4.272 142.28C5.04 142.28 5.59467 142.536 5.936 143.048C6.27733 143.56 6.74667 144.243 7.344 145.096C7.856 145.949 8.53867 146.973 9.392 148.168C17.072 157.725 24.7093 162.504 32.304 162.504C49.5413 162.504 63.4933 149.917 74.16 124.744C73.5627 124.829 72.9227 124.872 72.24 124.872C71.6427 124.872 71.0027 124.872 70.32 124.872C63.3227 124.872 57.6053 123.037 53.168 119.368C48.7307 115.528 46.512 110.024 46.512 102.856C46.512 93.384 50.2667 84.5093 57.776 76.232C64.688 68.552 72.9227 63.176 82.48 60.104C81.1147 55.0693 79.3227 50.9307 77.104 47.688L78.256 51.4C78.256 52.424 77.6587 53.8747 76.464 55.752C75.2693 57.7147 74.5013 58.696 74.16 58.696C73.2213 58.696 72.752 57.0747 72.752 53.832V52.936C74.9707 49.7787 76.08 47.3467 76.08 45.64C76.08 44.872 75.952 44.104 75.696 43.336C79.3653 46.7493 82.096 52.168 83.888 59.592C89.008 57.9707 94.8533 57.16 101.424 57.16C102.107 57.16 102.875 57.16 103.728 57.16C104.581 57.16 105.52 57.2027 106.544 57.288L107.824 55.24C112.347 47.9867 117.125 44.36 122.16 44.36C123.269 44.36 124.421 44.7013 125.616 45.384C126.896 46.0667 127.536 46.92 127.536 47.944C127.536 49.48 127.024 50.248 126 50.248C125.744 50.248 125.104 49.608 124.08 48.328C122.971 46.9627 121.605 46.28 119.984 46.28C116.059 46.28 112.773 49.992 110.128 57.416C112.091 57.5013 113.797 57.5867 115.248 57.672C116.699 57.672 117.936 57.672 118.96 57.672C130.736 57.672 136.624 54.5573 136.624 48.328C136.624 46.8773 136.24 45.384 135.472 43.848C134.704 42.312 134.32 41.416 134.32 41.16C134.32 40.904 134.448 40.776 134.704 40.776C135.472 40.776 136.155 41.8427 136.752 43.976C137.349 45.6827 137.648 47.0907 137.648 48.2C137.648 49.3947 137.477 50.4613 137.136 51.4C134.917 57.8853 129.2 61.128 119.984 61.128C119.472 61.128 118.363 61.0853 116.656 61C114.949 60.8293 112.603 60.744 109.616 60.744H109.104L104.496 77.512C102.107 86.216 99.9733 93.8533 98.096 100.424C96.2187 106.995 94.512 112.541 92.976 117.064C98.2667 113.48 101.979 109 104.112 103.624C104.709 102.344 105.008 101.192 105.008 100.168C105.008 99.5707 104.837 99.144 104.496 98.888C104.24 98.632 104.112 98.4613 104.112 98.376C104.112 97.6933 104.581 97.352 105.52 97.352C106.885 97.352 107.568 98.3333 107.568 100.296C107.568 101.149 107.312 102.173 106.8 103.368C104.24 109.512 99.4187 114.675 92.336 118.856L91.824 120.392C90.1173 125.597 88.2827 130.248 86.32 134.344C84.3573 138.355 82.48 141.853 80.688 144.84C69.7653 162.163 55.984 170.824 39.344 170.824ZM77.616 122.312C80.2613 122.056 82.6933 121.544 84.912 120.776C86.3627 115.997 88.1973 109.981 90.416 102.728C92.72 95.4747 95.408 87.0693 98.48 77.512C99.6747 73.7573 100.827 70.4293 101.936 67.528C103.131 64.6267 104.155 62.2373 105.008 60.36C99.376 59.848 95.7493 59.592 94.128 59.592C90.3733 59.592 87.0453 60.0187 84.144 60.872C84.8267 63.7733 85.3387 66.76 85.68 69.832C86.0213 72.904 86.192 76.0613 86.192 79.304C86.192 92.7013 83.3333 107.037 77.616 122.312ZM74.928 122.312H75.184C76.5493 118.984 77.7867 115.613 78.896 112.2C80.0053 108.701 80.9867 105.203 81.84 101.704C80.7307 98.12 78.5547 96.328 75.312 96.328C74.8 96.328 74.2027 96.456 73.52 96.712V96.072C73.52 94.792 74.032 93.5973 75.056 92.488C76.08 91.3787 77.232 90.824 78.512 90.824C81.328 90.824 82.6933 93.1707 82.608 97.864C83.888 91.5493 84.528 85.192 84.528 78.792C84.528 75.5493 84.3573 72.4773 84.016 69.576C83.76 66.6747 83.3333 63.9013 82.736 61.256C74.7147 63.7307 67.7173 69.064 61.744 77.256C58.8427 81.352 56.624 85.4907 55.088 89.672C53.552 93.768 52.784 97.9493 52.784 102.216C52.784 108.445 54.96 113.437 59.312 117.192C63.408 120.605 68.6133 122.312 74.928 122.312ZM38.704 168.904C52.1013 168.904 64.304 160.115 75.312 142.536C76.848 140.061 78.384 137.16 79.92 133.832C81.456 130.504 82.9067 126.749 84.272 122.568C83.0773 122.909 81.84 123.251 80.56 123.592C79.28 123.933 78 124.189 76.72 124.36C68.784 144.243 58.0747 156.872 44.592 162.248C41.52 163.528 37.9787 164.168 33.968 164.168C24.24 164.168 16.56 161.267 10.928 155.464C19.7173 164.424 28.976 168.904 38.704 168.904Z" fill="white"/>
<path d="M125.232 120C122.736 120 120.904 119.424 119.736 118.272C118.584 117.104 118.008 115.272 118.008 112.776C118.008 110.28 118.592 108.448 119.76 107.28C120.928 106.112 122.752 105.528 125.232 105.528H136.152C136.12 103.416 135.64 101.944 134.712 101.112C133.8 100.264 132.24 99.84 130.032 99.84H127.248C125.216 99.84 123.728 100.056 122.784 100.488C121.84 100.92 121.256 101.656 121.032 102.696C120.92 103.096 120.768 103.392 120.576 103.584C120.4 103.76 120.112 103.848 119.712 103.848C119.296 103.848 118.968 103.736 118.728 103.512C118.504 103.272 118.424 102.952 118.488 102.552C118.696 100.728 119.52 99.4 120.96 98.568C122.416 97.736 124.512 97.32 127.248 97.32H130.032C133.024 97.32 135.208 98.016 136.584 99.408C137.976 100.784 138.672 102.968 138.672 105.96V118.728C138.672 119.576 138.256 120 137.424 120C136.576 120 136.152 119.576 136.152 118.728V116.352C134.616 118.784 131.872 120 127.92 120H125.232ZM125.232 117.48H127.92C129.472 117.48 130.832 117.312 132 116.976C133.184 116.624 134.136 116.064 134.856 115.296C135.576 114.528 136.008 113.504 136.152 112.224V108.048H125.232C123.456 108.048 122.224 108.392 121.536 109.08C120.864 109.752 120.528 110.984 120.528 112.776C120.528 114.552 120.864 115.784 121.536 116.472C122.224 117.144 123.456 117.48 125.232 117.48ZM155.238 120C152.246 120 150.054 119.304 148.662 117.912C147.27 116.52 146.574 114.328 146.574 111.336V105.912C146.574 102.92 147.262 100.736 148.638 99.36C150.03 97.968 152.23 97.288 155.238 97.32H159.174C161.526 97.32 163.318 97.72 164.55 98.52C165.798 99.304 166.542 100.544 166.782 102.24C166.83 102.672 166.734 103 166.494 103.224C166.27 103.448 165.95 103.56 165.534 103.56C165.15 103.56 164.862 103.464 164.67 103.272C164.478 103.064 164.334 102.768 164.238 102.384C164.062 101.456 163.59 100.8 162.822 100.416C162.054 100.032 160.838 99.84 159.174 99.84H155.238C152.95 99.808 151.35 100.24 150.438 101.136C149.542 102.016 149.094 103.608 149.094 105.912V111.336C149.094 113.624 149.542 115.224 150.438 116.136C151.35 117.032 152.95 117.48 155.238 117.48H159.174C160.838 117.48 162.054 117.288 162.822 116.904C163.59 116.52 164.062 115.856 164.238 114.912C164.334 114.528 164.478 114.24 164.67 114.048C164.862 113.84 165.15 113.736 165.534 113.736C165.95 113.736 166.27 113.856 166.494 114.096C166.734 114.32 166.83 114.64 166.782 115.056C166.542 116.752 165.798 118 164.55 118.8C163.318 119.6 161.526 120 159.174 120H155.238ZM175.916 120C175.068 120 174.644 119.576 174.644 118.728V87.96C174.644 87.128 175.068 86.712 175.916 86.712C176.748 86.712 177.164 87.128 177.164 87.96V107.904L189.356 97.44C189.964 96.896 190.548 96.936 191.108 97.56C191.652 98.184 191.612 98.776 190.988 99.336L182.156 106.944L191.756 117.84C192.316 118.464 192.276 119.056 191.636 119.616C191.028 120.16 190.444 120.12 189.884 119.496L180.212 108.6L177.164 111.216V118.728C177.164 119.576 176.748 120 175.916 120Z" fill="white"/>
</svg>
